<?xml version="1.0" encoding="UTF-8"?>
<svg width="179px" height="55px" viewBox="0 0 179 55" version="1.1" xmlns="http://www.w3.org/2000/svg" xmlns:xlink="http://www.w3.org/1999/xlink">
    <!-- Generator: Sketch 42 (36781) - http://www.bohemiancoding.com/sketch -->
    <title>alpined-logo</title>
    <desc>Created with Sketch.</desc>
    <defs></defs>
    <g id="Page-1" stroke="none" stroke-width="1" fill="none" fill-rule="evenodd">
        <g id="alpined-logo">
            <g id="Group-2" transform="translate(0.000000, 13.000000)">
                <g id="Group" transform="translate(6.750000, 0.967742)"></g>
                <path d="M47.1619355,22.7419355 L45.6135484,18.84 L37.8096774,18.84 L36.2303226,22.7419355 L31.2754839,22.7419355 L39.6058065,2.08645161 L43.9722581,2.08645161 L52.1167742,22.7419355 L47.1619355,22.7419355 Z M39.2032258,15.1858065 L44.3129032,15.1858065 L41.7735484,8.24903226 L39.2032258,15.1858065 Z M53.3109677,0.166451613 L53.3109677,22.7419355 L57.7703226,22.7419355 L57.7703226,0.166451613 L53.3109677,0.166451613 Z M65.096129,21.1625806 L65.096129,29.8335484 L60.6367742,29.8335484 L60.6367742,8.93032258 L65.096129,8.93032258 L65.096129,10.5716129 C66.5516129,8.68258065 68.3477419,8.46580645 69.4006452,8.46580645 C71.8780645,8.46580645 73.4264516,9.54967742 74.2935484,10.4167742 C75.5322581,11.6554839 76.3683871,13.5445161 76.3683871,15.8051613 C76.3683871,18.1896774 75.5322581,19.9858065 74.1696774,21.3483871 C72.8070968,22.7109677 71.3206452,23.2064516 69.4935484,23.2064516 C66.7374194,23.2064516 65.5606452,21.8129032 65.096129,21.1625806 Z M68.3167742,12.3058065 C67.0780645,12.3058065 66.2729032,12.8941935 65.8393548,13.3277419 C65.1270968,14.04 64.7864516,15.0309677 64.7864516,15.8670968 C64.7864516,16.7341935 65.1270968,17.6322581 65.7774194,18.3135484 C66.4277419,18.963871 67.3567742,19.3664516 68.3167742,19.3664516 C69.1529032,19.3664516 70.0509677,19.0258065 70.7012903,18.4064516 C71.4135484,17.7251613 71.7851613,16.6722581 71.7851613,15.7741935 C71.7851613,14.7522581 71.3516129,13.8541935 70.7322581,13.2658065 C70.0819355,12.6464516 69.2148387,12.3058065 68.3167742,12.3058065 Z M78.7393548,8.93032258 L78.7393548,22.7419355 L83.1987097,22.7419355 L83.1987097,8.93032258 L78.7393548,8.93032258 Z M78.3677419,3.04645161 C78.3677419,4.50193548 79.5135484,5.64774194 80.9690323,5.64774194 C82.4245161,5.64774194 83.5703226,4.50193548 83.5703226,3.04645161 C83.5703226,1.59096774 82.4245161,0.44516129 80.9690323,0.44516129 C79.5135484,0.44516129 78.3677419,1.59096774 78.3677419,3.04645161 Z M86.2509677,22.7419355 L90.7103226,22.7419355 L90.7103226,15.6503226 C90.7103226,14.7522581 90.8341935,13.7612903 91.5774194,13.0180645 C91.9180645,12.6464516 92.5064516,12.2748387 93.4354839,12.2748387 C94.2406452,12.2748387 94.7980645,12.5535484 95.1387097,12.8941935 C95.8509677,13.6064516 95.8819355,14.7522581 95.8819355,15.6503226 L95.8819355,22.7419355 L100.34129,22.7419355 L100.34129,14.0090323 C100.34129,12.8941935 100.248387,11.2529032 98.9477419,9.95225806 C97.7709677,8.77548387 96.1916129,8.55870968 94.983871,8.55870968 C93.6832258,8.55870968 92.0729032,8.83741935 90.7103226,10.5716129 L90.7103226,8.93032258 L86.2509677,8.93032258 L86.2509677,22.7419355 Z M107.07871,13.9470968 L113.117419,13.9470968 C113.086452,13.8232258 112.869677,12.956129 112.219355,12.3367742 C111.723871,11.8722581 111.011613,11.5625806 110.113548,11.5625806 C108.967742,11.5625806 108.286452,12.0270968 107.852903,12.4606452 C107.512258,12.8322581 107.202581,13.3277419 107.07871,13.9470968 Z M117.236129,16.1458065 L117.236129,16.6103226 L106.923871,16.6103226 C106.923871,17.3535484 107.202581,18.3445161 107.76,18.963871 C108.44129,19.7070968 109.370323,19.8309677 110.051613,19.8309677 C110.701935,19.8309677 111.383226,19.7070968 111.847742,19.4283871 C111.909677,19.3974194 112.436129,19.0567742 112.807742,18.2825806 L117.019355,18.716129 C116.4,20.6670968 115.16129,21.6890323 114.356129,22.1845161 C113.024516,22.9896774 111.538065,23.2064516 109.989677,23.2064516 C107.914839,23.2064516 106.087742,22.8348387 104.477419,21.2245161 C103.269677,20.0167742 102.402581,18.1896774 102.402581,15.8980645 C102.402581,13.916129 103.114839,11.8722581 104.508387,10.4477419 C106.180645,8.77548387 108.255484,8.46580645 109.803871,8.46580645 C111.352258,8.46580645 113.581935,8.74451613 115.285161,10.5406452 C116.926452,12.2748387 117.236129,14.4425806 117.236129,16.1458065 Z M134.347742,0.166451613 L134.347742,22.7419355 L129.888387,22.7419355 L129.888387,21.0696774 C129.207097,22.0606452 127.968387,23.2064516 125.521935,23.2064516 C123.478065,23.2064516 121.991613,22.556129 120.783871,21.3174194 C119.359355,19.8929032 118.616129,17.9109677 118.616129,15.7741935 C118.616129,13.4825806 119.452258,11.5935484 120.783871,10.323871 C121.991613,9.17806452 123.694839,8.46580645 125.583871,8.46580645 C127.10129,8.46580645 128.773548,8.96129032 129.888387,10.4787097 L129.888387,0.166451613 L134.347742,0.166451613 Z M126.667742,12.3058065 C125.769677,12.3058065 124.995484,12.5535484 124.283226,13.2348387 C123.632903,13.8541935 123.199355,14.7522581 123.199355,15.8670968 C123.199355,16.8890323 123.632903,17.7870968 124.283226,18.4064516 C124.964516,19.0567742 125.831613,19.3664516 126.605806,19.3664516 C127.441935,19.3664516 128.432903,19.0258065 129.145161,18.3445161 C129.671613,17.8490323 130.167097,17.0129032 130.167097,15.8670968 C130.167097,14.6903226 129.702581,13.8851613 129.176129,13.3277419 C128.463871,12.5845161 127.627742,12.3058065 126.667742,12.3058065 Z" id="Alpined" fill="#FFFFFF"></path>
                <polygon id="Triangle" fill="#FFFFFF" points="17.1774194 0.967741935 27.0967742 22.7419355 7.25806452 22.7419355"></polygon>
                <polygon id="Triangle" fill="#FFFFFF" points="9.91935484 6.29032258 19.8387097 22.7419355 0 22.7419355"></polygon>
            </g>
        </g>
    </g>
</svg>